<?xml version="1.0" encoding="UTF-8" standalone="no"?>
<svg
   height="128"
   width="128"
   version="1.1"
   id="svg7"
   sodipodi:docname="icon.svg"
   inkscape:version="1.3.2 (091e20e, 2023-11-25, custom)"
   xmlns:inkscape="http://www.inkscape.org/namespaces/inkscape"
   xmlns:sodipodi="http://sodipodi.sourceforge.net/DTD/sodipodi-0.dtd"
   xmlns="http://www.w3.org/2000/svg"
   xmlns:svg="http://www.w3.org/2000/svg">
  <defs
     id="defs7" />
  <sodipodi:namedview
     id="namedview7"
     pagecolor="#ffffff"
     bordercolor="#000000"
     borderopacity="0.25"
     inkscape:showpageshadow="2"
     inkscape:pageopacity="0.0"
     inkscape:pagecheckerboard="0"
     inkscape:deskcolor="#d1d1d1"
     inkscape:zoom="1.1338568"
     inkscape:cx="83.343858"
     inkscape:cy="-11.02432"
     inkscape:window-width="1920"
     inkscape:window-height="1017"
     inkscape:window-x="-8"
     inkscape:window-y="-8"
     inkscape:window-maximized="1"
     inkscape:current-layer="svg7" />
  <g
     transform="scale(.101) translate(122 122)"
     id="g7">
    <g
       fill="#fff"
       id="g4">
      <path
         d="M105 673v33q407 354 814 0v-33z"
         id="path1"
         style="fill:#222222;fill-opacity:1" />
      <path
         fill="#478cbf"
         d="m105 673 152 14q12 1 15 14l4 67 132 10 8-61q2-11 15-15h162q13 4 15 15l8 61 132-10 4-67q3-13 15-14l152-14V427q30-39 56-81-35-59-83-108-43 20-82 47-40-37-88-64 7-51 8-102-59-28-123-42-26 43-46 89-49-7-98 0-20-46-46-89-64 14-123 42 1 51 8 102-48 27-88 64-39-27-82-47-48 49-83 108 26 42 56 81zm0 33v39c0 276 813 276 813 0v-39l-134 12-5 69q-2 10-14 13l-162 11q-12 0-16-11l-10-65H447l-10 65q-4 11-16 11l-162-11q-12-3-14-13l-5-69z"
         id="path2"
         style="fill:#000000;fill-opacity:1" />
      <path
         d="M483 600c3 34 55 34 58 0v-86c-3-34-55-34-58 0z"
         id="path3"
         style="fill:none" />
      <circle
         cx="725"
         cy="526"
         r="90"
         id="circle3"
         style="fill:none;fill-opacity:1" />
      <circle
         cx="299"
         cy="526"
         r="90"
         id="circle4"
         style="fill:none" />
    </g>
    <g
       fill="#414042"
       id="g6">
      <ellipse
         cx="307"
         cy="532"
         id="circle5"
         style="fill:none;fill-opacity:1"
         rx="60"
         ry="75.281235" />
      <ellipse
         id="circle6"
         style="fill:none;fill-opacity:1"
         ry="84.698212"
         rx="83.154572"
         cy="525.82544"
         cx="724.7182" />
    </g>
  </g>
  <path
     style="fill:#e51d1d;fill-opacity:1"
     d="M 63.941056,92.714532 75.406349,80.146807 71.106865,75.185863 66.256164,75.626836 64.0513,79.375105 61.625949,75.73708 57.105978,75.296106 53.02698,79.595591 Z"
     id="path244"
     sodipodi:nodetypes="ccccccccc" />
  <path
     style="fill:#e51d1d;fill-opacity:0.427386;stroke-width:1.43887"
     d="m 64.14167,97.071687 15.06408,-17.024573 -5.824425,-7.58182 -7.662499,0.67394 -1.583717,2.298523 -1.570591,-2.130037 -8.149911,-0.673942 -5.525737,6.570912 z"
     id="path244-6"
     sodipodi:nodetypes="ccccccccc" />
</svg>
