<?xml version="1.0" encoding="UTF-8" standalone="no"?>
<svg
   height="128"
   width="128"
   version="1.1"
   id="svg7"
   sodipodi:docname="icon.svg"
   inkscape:version="1.3.2 (091e20e, 2023-11-25, custom)"
   xmlns:inkscape="http://www.inkscape.org/namespaces/inkscape"
   xmlns:sodipodi="http://sodipodi.sourceforge.net/DTD/sodipodi-0.dtd"
   xmlns="http://www.w3.org/2000/svg"
   xmlns:svg="http://www.w3.org/2000/svg">
  <defs
     id="defs7" />
  <sodipodi:namedview
     id="namedview7"
     pagecolor="#ffffff"
     bordercolor="#000000"
     borderopacity="0.25"
     inkscape:showpageshadow="2"
     inkscape:pageopacity="0.0"
     inkscape:pagecheckerboard="0"
     inkscape:deskcolor="#d1d1d1"
     inkscape:zoom="6.4140626"
     inkscape:cx="65.325212"
     inkscape:cy="59.322776"
     inkscape:window-width="1920"
     inkscape:window-height="1017"
     inkscape:window-x="-8"
     inkscape:window-y="-8"
     inkscape:window-maximized="1"
     inkscape:current-layer="g5" />
  <g
     transform="scale(.101) translate(122 122)"
     id="g7">
    <g
       id="g5"
       transform="matrix(-43.068599,0,0,-43.078966,3281.0815,4105.0725)"
       style="fill:#000000;fill-opacity:1">
      <path
         style="display:inline;fill:#857ca8;fill-opacity:0.830861;stroke-width:1.249"
         d="m 64.194341,95.223217 c 0,0 15.236679,-10.944368 12.964788,-17.96953 -0.873563,-2.70124 -3.109547,-4.930822 -5.363245,-4.996903 -2.253699,-0.06608 -3.539697,0.0142 -5.076936,1.116359 -1.537239,1.102157 -2.385073,2.410295 -2.385073,2.410295 0,0 -1.388614,-1.637783 -2.917702,-2.630778 -1.529089,-0.992995 -3.115807,-0.978681 -5.143406,-0.830514 -2.0276,0.148166 -4.428681,2.962454 -5.065262,5.29534 -1.873555,6.866047 11.860308,16.840234 12.986838,17.605731 z"
         id="path244"
         sodipodi:nodetypes="cszzczzscc"
         inkscape:label="path244" />
      <path
         style="fill:#e2e5f8;fill-opacity:1"
         d="m 64.271785,92.824775 c 0,0 10.753798,-9.300074 10.803834,-13.229184 0.05004,-3.92911 -2.499383,-5.106144 -4.377438,-5.156976 -1.878055,-0.05083 -2.995639,0.56089 -4.276653,1.408707 -1.281014,0.847818 -2.117453,2.663604 -2.117453,2.663604 0,0 -1.073175,-1.899756 -2.347397,-2.663603 -1.274222,-0.763847 -2.596468,-1.41244 -4.28611,-1.298465 -1.689642,0.113975 -4.188002,1.327042 -4.312859,5.156976 -0.124857,3.829934 10.914076,13.118941 10.914076,13.118941 z"
         id="path4"
         sodipodi:nodetypes="czzzczzzc" />
      <g
         fill="#fff"
         id="g4"
         style="display:inline;fill:#000000;fill-opacity:1"
         transform="matrix(-0.02335811,0,0,-0.02340975,76.200987,95.464294)">
        <path
           id="path2"
           style="display:inline;fill:#000000;fill-opacity:1;stroke-width:0.833333"
           d="m 438.01197,148.32739 c -35.55531,7.77778 -69.72887,19.4461 -102.50641,35.00166 0.55555,28.33334 2.78267,56.65688 6.67154,84.9902 -26.66648,15.00002 -51.1165,32.7849 -73.33858,53.34047 -21.6665,-15.00002 -44.43814,-28.06431 -68.32685,-39.17543 -26.66648,27.22223 -49.72053,57.22417 -69.16484,90.00195 14.44434,23.33336 30.00199,45.83882 46.66854,67.5055 v 204.99818 l 126.66253,11.66722 c 6.66661,0.55554 10.83845,4.445 12.50511,11.66721 l 3.31965,55.83829 109.9998,8.33142 6.67154,-50.84265 c 1.1111,-6.1111 5.28292,-10.26685 12.5051,-12.48908 h 134.99389 c 7.22217,2.22223 11.394,6.37798 12.50511,12.48908 l 6.65542,50.84265 109.9998,-8.33142 3.33577,-55.83829 c 1.66666,-7.22221 5.83849,-11.11167 12.5051,-11.66721 L 856.33672,644.98992 V 439.99174 c 16.66655,-21.66668 32.2242,-44.17214 46.66853,-67.5055 -19.44429,-32.77778 -42.49835,-62.77972 -69.16483,-90.00195 -23.88871,11.11112 -46.66033,24.17541 -68.32686,39.17543 -22.22206,-20.55557 -46.67209,-38.34045 -73.33857,-53.34047 3.88887,-28.33332 6.11599,-56.65686 6.67154,-84.9902 -32.77754,-15.55556 -66.9511,-27.22388 -102.50641,-35.00166 -14.44433,23.88889 -27.22614,48.60541 -38.33716,74.16097 -27.22204,-3.88889 -54.43179,-3.88889 -81.65383,0 -11.11102,-25.55556 -23.89283,-50.27208 -38.33716,-74.16097 z m -98.33267,299.1578 a 74.999687,75.000232 0 0 1 74.9984,74.99894 74.999687,75.000232 0 0 1 -74.9984,74.99894 74.999687,75.000232 0 0 1 -74.9984,-74.99894 74.999687,75.000232 0 0 1 74.9984,-74.99894 z m 354.99349,0 a 74.999687,75.000232 0 0 1 74.9984,74.99894 74.999687,75.000232 0 0 1 -74.9984,74.99894 74.999687,75.000232 0 0 1 -74.9984,-74.99894 74.999687,75.000232 0 0 1 74.9984,-74.99894 z m -177.5048,43.75207 c 11.45826,0 22.92224,7.08894 24.17224,21.25561 v 71.66314 c -2.49999,28.33335 -45.82838,28.33335 -48.32837,0 v -71.66314 c 1.25,-14.16667 12.69787,-21.25561 24.15613,-21.25561 z M 178.01537,672.49813 v 32.48772 c 0,229.9999 677.48338,229.9999 677.48338,0 v -32.48772 l -111.65963,9.99126 -4.15762,57.49812 c -1.11111,5.55555 -5.00052,9.16257 -11.66713,10.82924 l -135.01002,9.1694 c -6.66661,0 -11.10474,-3.0583 -13.32696,-9.1694 l -8.33136,-54.16232 H 463.00606 l -8.33136,54.16232 c -2.22222,6.1111 -6.66035,9.1694 -13.32696,9.1694 l -135.01001,-9.1694 c -6.66662,-1.66667 -10.55604,-5.27369 -11.66714,-10.82924 l -4.15762,-57.49812 z" />
      </g>
    </g>
  </g>
</svg>
