<?xml version="1.0" encoding="UTF-8" standalone="no"?>
<!-- Created with Inkscape (http://www.inkscape.org/) -->

<svg
   width="32mm"
   height="32mm"
   viewBox="0 0 32 32"
   version="1.1"
   id="svg1"
   inkscape:version="1.3.2 (091e20e, 2023-11-25, custom)"
   sodipodi:docname="settings.svg"
   xmlns:inkscape="http://www.inkscape.org/namespaces/inkscape"
   xmlns:sodipodi="http://sodipodi.sourceforge.net/DTD/sodipodi-0.dtd"
   xmlns="http://www.w3.org/2000/svg"
   xmlns:svg="http://www.w3.org/2000/svg">
  <sodipodi:namedview
     id="namedview1"
     pagecolor="#ffffff"
     bordercolor="#111111"
     borderopacity="1"
     inkscape:showpageshadow="0"
     inkscape:pageopacity="0"
     inkscape:pagecheckerboard="1"
     inkscape:deskcolor="#d1d1d1"
     inkscape:document-units="mm"
     inkscape:zoom="4"
     inkscape:cx="21"
     inkscape:cy="95.625"
     inkscape:window-width="1920"
     inkscape:window-height="1017"
     inkscape:window-x="-8"
     inkscape:window-y="-8"
     inkscape:window-maximized="1"
     inkscape:current-layer="layer1" />
  <defs
     id="defs1">
    <inkscape:path-effect
       effect="fillet_chamfer"
       id="path-effect728"
       is_visible="true"
       lpeversion="1"
       nodesatellites_param="C,0,0,1,0,1.8520833,0,1 @ C,0,0,1,0,1.8520833,0,1 @ C,0,0,1,0,1.8520833,0,1 @ C,0,0,1,0,1.8520833,0,1 @ C,0,0,1,0,1.8520833,0,1 @ C,0,0,1,0,1.8520833,0,1 @ C,0,0,1,0,1.8520833,0,1 @ C,0,0,1,0,1.8520833,0,1 @ C,0,0,1,0,1.8520833,0,1 @ C,0,0,1,0,1.8520833,0,1 @ C,0,0,1,0,1.8520833,0,1 @ C,0,0,1,0,1.8520833,0,1 @ C,0,0,1,0,1.8520833,0,1 @ C,0,0,1,0,1.8520833,0,1 @ C,0,0,1,0,1.8520833,0,1 @ C,0,0,1,0,1.8520833,0,1 @ C,0,0,1,0,1.8520833,0,1 @ C,0,0,1,0,1.8520833,0,1 @ C,0,0,1,0,1.8520833,0,1 @ C,0,0,1,0,1.8520833,0,1 @ C,0,0,1,0,1.8520833,0,1 @ C,0,0,1,0,1.8520833,0,1 @ C,0,0,1,0,1.8520833,0,1 @ C,0,0,1,0,1.8520833,0,1 @ C,0,0,1,0,1.8520833,0,1 @ C,0,0,1,0,1.8520833,0,1 @ C,0,0,1,0,1.8520833,0,1 @ C,0,0,1,0,1.8520833,0,1 @ C,0,0,1,0,1.8520833,0,1 @ C,0,0,1,0,1.8520833,0,1 @ C,0,0,1,0,1.8520833,0,1 @ C,0,0,1,0,1.8520833,0,1 | C,0,0,1,0,1.8520833,0,1 @ C,0,0,1,0,1.8520833,0,1 @ C,0,0,1,0,1.8520833,0,1 @ C,0,0,1,0,1.8520833,0,1"
       radius="7"
       unit="px"
       method="bezier"
       mode="F"
       chamfer_steps="1"
       flexible="false"
       use_knot_distance="true"
       apply_no_radius="true"
       apply_with_radius="true"
       only_selected="false"
       hide_knots="false" />
    <inkscape:path-effect
       effect="fillet_chamfer"
       id="path-effect727"
       is_visible="true"
       lpeversion="1"
       nodesatellites_param="C,0,0,1,0,2.9104167,0,1 @ C,0,0,1,0,2.9104167,0,1 @ C,0,0,1,0,2.9104167,0,1 @ C,0,0,1,0,2.9104167,0,1 @ C,0,0,1,0,2.9104167,0,1 @ C,0,0,1,0,2.9104167,0,1 @ C,0,0,1,0,2.9104167,0,1 @ C,0,0,1,0,2.9104167,0,1 @ C,0,0,1,0,2.9104167,0,1 @ C,0,0,1,0,2.9104167,0,1 @ C,0,0,1,0,2.9104167,0,1 @ C,0,0,1,0,2.9104167,0,1 @ C,0,0,1,0,2.9104167,0,1 @ C,0,0,1,0,2.9104167,0,1 @ C,0,0,1,0,2.9104167,0,1 @ C,0,0,1,0,2.9104167,0,1"
       radius="11"
       unit="px"
       method="bezier"
       mode="F"
       chamfer_steps="1"
       flexible="false"
       use_knot_distance="true"
       apply_no_radius="true"
       apply_with_radius="true"
       only_selected="false"
       hide_knots="false" />
    <inkscape:path-effect
       effect="knot"
       id="path-effect726"
       is_visible="true"
       lpeversion="1"
       switcher_size="15"
       interruption_width="3"
       prop_to_stroke_width="true"
       add_stroke_width="inkscape_1.0_and_up"
       both="false"
       inverse_width="false"
       add_other_stroke_width="inkscape_1.0_and_up"
       crossing_points_vector="" />
    <inkscape:path-effect
       effect="knot"
       id="path-effect725"
       is_visible="true"
       lpeversion="1"
       switcher_size="15"
       interruption_width="3"
       prop_to_stroke_width="true"
       add_stroke_width="inkscape_1.0_and_up"
       both="false"
       inverse_width="false"
       add_other_stroke_width="inkscape_1.0_and_up"
       crossing_points_vector="" />
  </defs>
  <g
     inkscape:label="Layer 1"
     inkscape:groupmode="layer"
     id="layer1">
    <path
       id="path1"
       style="fill:#ffffff;fill-rule:evenodd;stroke-width:0.264583"
       inkscape:transform-center-x="-0.27129401"
       inkscape:transform-center-y="-1.4330846"
       d="M 15.1892 0.94053877 L 12.183394 1.3695672 C 12.187796 2.682388 12.457624 4.3239321 12.451528 5.707354 L 8.7437734 7.9024211 C 7.5278432 7.2425623 6.2182505 6.2169924 5.0692882 5.5819244 L 3.2479716 8.0109684 C 4.1793216 8.9358081 5.5301718 9.9055784 6.5039932 10.887761 L 5.4348876 15.061668 C 4.1085346 15.454989 2.4572328 15.655686 1.1957715 16.019191 L 1.6259177 19.025134 C 2.9386829 19.020399 4.5796312 18.750137 5.96298 18.755926 L 8.1583775 22.463252 C 7.4985188 23.679182 6.4730872 24.988523 5.8380192 26.137485 L 8.2667987 27.959173 C 9.1916387 27.027823 10.161059 25.676878 11.143241 24.703056 L 15.317567 25.772295 C 15.710887 27.098648 15.911644 28.749438 16.275149 30.0109 L 19.280882 29.581339 C 19.276147 28.268574 19.005965 26.627579 19.011754 25.24423 L 22.718904 23.048704 C 23.934834 23.708563 25.244427 24.734133 26.393389 25.369201 L 28.215238 22.940084 C 27.283888 22.015244 25.932505 21.045547 24.958684 20.063365 L 26.028395 15.889916 C 27.35462 15.496955 29.005227 15.296729 30.266591 14.933602 L 29.836978 11.927587 C 28.524157 11.93199 26.883191 12.201827 25.49977 12.195731 L 23.304299 8.4878729 C 23.964158 7.2719429 24.990123 5.9625296 25.625191 4.8135675 L 23.195878 2.9919521 C 22.271038 3.9233021 21.301618 5.2742473 20.319436 6.2480687 L 16.145643 5.1787571 C 15.752682 3.8525318 15.552326 2.201903 15.1892 0.94053877 z M 15.022917 10.329935 A 5.1944796 5.2041103 82.111341 0 1 20.883198 14.771411 A 5.1944796 5.2041103 82.111341 0 1 16.430773 20.622961 A 5.1944796 5.2041103 82.111341 0 1 10.570565 16.182017 A 5.1944796 5.2041103 82.111341 0 1 15.022917 10.329935 z "
       transform="matrix(0.95191601,0.13044841,-0.13020085,0.95368002,3.0517026,-0.81132268)" />
  </g>
</svg>
